<?xml version="1.0" encoding="UTF-8" standalone="no"?>
<svg
   xmlns:dc="http://purl.org/dc/elements/1.1/"
   xmlns:cc="http://creativecommons.org/ns#"
   xmlns:rdf="http://www.w3.org/1999/02/22-rdf-syntax-ns#"
   xmlns:svg="http://www.w3.org/2000/svg"
   xmlns="http://www.w3.org/2000/svg"
   xmlns:sodipodi="http://sodipodi.sourceforge.net/DTD/sodipodi-0.dtd"
   xmlns:inkscape="http://www.inkscape.org/namespaces/inkscape"
   version="1.1"
   width="48"
   height="48"
   viewBox="0 0 48 48"
   enable-background="new 0 0 76.00 76.00"
   xml:space="preserve"
   id="svg2"
   inkscape:version="0.91 r13725"
   sodipodi:docname="appbar.magnify.svg"><metadata
     id="metadata10"><rdf:RDF><cc:Work
         rdf:about=""><dc:format>image/svg+xml</dc:format><dc:type
           rdf:resource="http://purl.org/dc/dcmitype/StillImage" /><dc:title></dc:title></cc:Work></rdf:RDF></metadata><defs
     id="defs8" /><sodipodi:namedview
     pagecolor="#ffffff"
     bordercolor="#666666"
     borderopacity="1"
     objecttolerance="10"
     gridtolerance="10"
     guidetolerance="10"
     inkscape:pageopacity="0"
     inkscape:pageshadow="2"
     inkscape:window-width="1323"
     inkscape:window-height="713"
     id="namedview6"
     showgrid="false"
     inkscape:zoom="3.1052632"
     inkscape:cx="-3.3813559"
     inkscape:cy="38"
     inkscape:window-x="43"
     inkscape:window-y="27"
     inkscape:window-maximized="1"
     inkscape:current-layer="svg2" /><path
     d="M 29.8985,-7e-7 C 39.895741,-7e-7 48,8.1042587 48,18.1015 48,28.098741 39.895741,36.203 29.8985,36.203 c -3.423935,0 -6.625873,-0.950691 -9.41278,-2.544926 L 7.4162922,46.727647 c -1.696617,1.696472 -4.447321,1.696472 -6.1439381,0 -1.69647246,-1.696619 -1.69647246,-4.447322 0,-6.143939 L 14.399416,27.457803 C 12.74769,24.727373 11.797,21.525435 11.797,18.1015 11.797,8.1042587 19.901258,-7e-7 29.8985,-7e-7 Z m 0,5.7924806 c -6.798055,0 -12.30902,5.5109651 -12.30902,12.3090201 0,6.798055 5.510965,12.30902 12.30902,12.30902 6.798054,0 12.30902,-5.510965 12.30902,-12.30902 0,-6.798055 -5.510966,-12.3090201 -12.30902,-12.3090201 z"
     id="path4"
     inkscape:connector-curvature="0"
     style="fill:#000000;fill-opacity:1;stroke-width:0.2;stroke-linejoin:round" /></svg>