<?xml version="1.0" encoding="UTF-8" standalone="no"?>
<svg
   xmlns:dc="http://purl.org/dc/elements/1.1/"
   xmlns:cc="http://creativecommons.org/ns#"
   xmlns:rdf="http://www.w3.org/1999/02/22-rdf-syntax-ns#"
   xmlns:svg="http://www.w3.org/2000/svg"
   xmlns="http://www.w3.org/2000/svg"
   xmlns:xlink="http://www.w3.org/1999/xlink"
   version="1.1"
   id="svg2"
   viewBox="0 0 48 48.000001"
   height="48"
   width="48">
  <defs
     id="defs4">
    <marker
       style="overflow:visible"
       id="marker4728"
       refX="0"
       refY="0"
       orient="auto">
      <path
         transform="scale(0.8,0.8)"
         style="fill:#ffffff;fill-opacity:1;fill-rule:evenodd;stroke:#ffffff;stroke-width:1pt;stroke-opacity:1"
         d="m 5.77,0 -8.65,5 0,-10 8.65,5 z"
         id="path4730" />
    </marker>
    <marker
       style="overflow:visible"
       id="Arrow2Mend"
       refX="0"
       refY="0"
       orient="auto">
      <path
         transform="scale(-0.6,-0.6)"
         d="M 8.7185878,4.0337352 -2.2072895,0.01601326 8.7185884,-4.0017078 c -1.7454984,2.3720609 -1.7354408,5.6174519 -6e-7,8.035443 z"
         style="fill:#ffffff;fill-opacity:1;fill-rule:evenodd;stroke:#ffffff;stroke-width:0.625;stroke-linejoin:round;stroke-opacity:1"
         id="path4193" />
    </marker>
    <marker
       style="overflow:visible"
       id="Arrow1Send"
       refX="0"
       refY="0"
       orient="auto">
      <path
         transform="matrix(-0.2,0,0,-0.2,-1.2,0)"
         style="fill:#ffffff;fill-opacity:1;fill-rule:evenodd;stroke:#ffffff;stroke-width:1pt;stroke-opacity:1"
         d="M 0,0 5,-5 -12.5,0 5,5 0,0 Z"
         id="path4181" />
    </marker>
    <marker
       style="overflow:visible"
       id="Arrow1Mend"
       refX="0"
       refY="0"
       orient="auto">
      <path
         transform="matrix(-0.4,0,0,-0.4,-4,0)"
         style="fill:#ffffff;fill-opacity:1;fill-rule:evenodd;stroke:#ffffff;stroke-width:1pt;stroke-opacity:1"
         d="M 0,0 5,-5 -12.5,0 5,5 0,0 Z"
         id="path4175" />
    </marker>
    <marker
       style="overflow:visible"
       id="Arrow1Lstart"
       refX="0"
       refY="0"
       orient="auto">
      <path
         transform="matrix(0.8,0,0,0.8,10,0)"
         style="fill:#ffffff;fill-opacity:1;fill-rule:evenodd;stroke:#ffffff;stroke-width:1pt;stroke-opacity:1"
         d="M 0,0 5,-5 -12.5,0 5,5 0,0 Z"
         id="path4166" />
    </marker>
    <marker
       style="overflow:visible"
       id="TriangleOutL"
       refX="0"
       refY="0"
       orient="auto">
      <path
         transform="scale(0.8,0.8)"
         style="fill:#ffffff;fill-opacity:1;fill-rule:evenodd;stroke:#ffffff;stroke-width:1pt;stroke-opacity:1"
         d="m 5.77,0 -8.65,5 0,-10 8.65,5 z"
         id="path4308" />
    </marker>
    <marker
       style="overflow:visible"
       id="Arrow1Lend"
       refX="0"
       refY="0"
       orient="auto">
      <path
         transform="matrix(-0.8,0,0,-0.8,-10,0)"
         style="fill:#ffffff;fill-opacity:1;fill-rule:evenodd;stroke:#ffffff;stroke-width:1pt;stroke-opacity:1"
         d="M 0,0 5,-5 -12.5,0 5,5 0,0 Z"
         id="path4169" />
    </marker>
    <linearGradient
       id="linearGradient4144">
      <stop
         id="stop4146"
         offset="0"
         style="stop-color:#e1fff0;stop-opacity:0.70588237" />
      <stop
         id="stop4148"
         offset="1"
         style="stop-color:#ffffff;stop-opacity:0" />
    </linearGradient>
    <linearGradient
       gradientTransform="matrix(0.96603837,0,0,0.96603837,13.607078,5.7067746)"
       gradientUnits="userSpaceOnUse"
       y2="463.05142"
       x2="325.37109"
       y1="355.67105"
       x1="367.05414"
       id="linearGradient4154"
       xlink:href="#linearGradient4144" />
    <filter
       height="1.2400737"
       y="-0.12003687"
       width="1.2400737"
       x="-0.12003687"
       id="filter5079"
       style="color-interpolation-filters:sRGB">
      <feGaussianBlur
         id="feGaussianBlur5081"
         stdDeviation="22.432428" />
    </filter>
  </defs>
  <metadata
     id="metadata7">
    <rdf:RDF>
      <cc:Work
         rdf:about="">
        <dc:format>image/svg+xml</dc:format>
        <dc:type
           rdf:resource="http://purl.org/dc/dcmitype/StillImage" />
        <dc:title></dc:title>
      </cc:Work>
    </rdf:RDF>
  </metadata>
  <g
     transform="translate(0,-1004.3622)"
     id="layer1">
    <g
       transform="matrix(0.09579285,0,0,0.09579285,-5.8326309,978.04994)"
       id="g5083">
      <circle
         r="224.25539"
         cy="508.07651"
         cx="311.42859"
         id="circle5017"
         style="fill:#284d4d;fill-opacity:1;stroke:#e6e6e6;stroke-width:1.0606674;stroke-miterlimit:4;stroke-dasharray:none;stroke-dashoffset:0;stroke-opacity:1;filter:url(#filter5079)"
         transform="matrix(0.90092323,0,0,0.90038666,30.855338,67.754053)" />
      <circle
         style="fill:#284d4d;fill-opacity:1;stroke:none;stroke-width:1;stroke-miterlimit:4;stroke-dasharray:none;stroke-dashoffset:0;stroke-opacity:1"
         id="path4136"
         cx="311.42859"
         cy="495.21936"
         r="211.42857" />
      <circle
         r="185.77495"
         cy="495.21936"
         cx="311.42859"
         id="circle4138"
         style="fill:#d7e6e6;fill-opacity:1;stroke:#e6e6e6;stroke-width:0.87866533;stroke-miterlimit:4;stroke-dasharray:none;stroke-dashoffset:0;stroke-opacity:1" />
      <circle
         style="fill:#64c8a0;fill-opacity:1;stroke:#e6e6e6;stroke-width:0.8281092;stroke-miterlimit:4;stroke-dasharray:none;stroke-dashoffset:0;stroke-opacity:1"
         id="circle4140"
         cx="311.42859"
         cy="495.21936"
         r="175.08594" />
      <circle
         cy="484.10767"
         cx="314.45905"
         id="circle4142"
         style="fill:url(#linearGradient4154);fill-opacity:1;stroke:none;stroke-width:0.70340413;stroke-miterlimit:4;stroke-dasharray:none;stroke-dashoffset:0;stroke-opacity:1"
         r="143.66895" />
      <g
         id="g5013"
         transform="translate(2,2.0203051)">
        <path
           id="path4964"
           d="m 225.14206,467.32458 c -3.35366,9.45912 -5.08484,19.41693 -5.12043,29.4529 -3.2e-4,49.20078 39.88487,89.08597 89.08565,89.08566 49.20013,-6e-4 89.08431,-39.88553 89.08399,-89.08566 -6.1e-4,-49.19948 -39.88451,-89.08338 -89.08399,-89.08398 -2.89422,0.0289 -5.78533,0.19884 -8.66301,0.5092"
           style="fill:none;fill-opacity:0.70588235;stroke:#ffffff;stroke-width:28.30051422;stroke-linecap:round;stroke-linejoin:round;stroke-miterlimit:4;stroke-dasharray:none;stroke-dashoffset:0;stroke-opacity:1" />
        <path
           transform="matrix(0.91712957,0.28677311,-0.28677311,0.91712957,161.48804,-22.094202)"
           d="m 269.76149,513.08432 -49.55056,-15.83868 -49.55057,-15.83868 38.49198,-34.99271 38.49198,-34.99271 11.05859,50.83139 z"
           id="path4970"
           style="fill:#ffffff;fill-opacity:1;stroke:#ffffff;stroke-width:1;stroke-linecap:round;stroke-linejoin:round;stroke-miterlimit:4;stroke-dasharray:none;stroke-dashoffset:0;stroke-opacity:1" />
      </g>
    </g>
  </g>
</svg>
